# ProBuilder 5.0.3
# https://unity3d.com/unity/features/worldbuilding/probuilder
# 14/11/2021 23:20:54

mtllib ./Boat.mtl
o Boat

g Cube
v 3.522705 -1.852913 -1.258385
v -8.097168 -1.852913 -2.648193
v 3.522705 -1.852913 1.519432
v -8.097168 -1.852913 2.745453
v -8.237671 1.302425 -3.836678
v 8.115723 1.302425 -2.446869
v 8.115723 1.302425 2.564369
v -8.237671 1.302425 3.79039
v -8.237671 1.852917 -3.836678
v -8.237671 1.852917 3.79039
v 8.115723 1.852917 -2.446869
v 8.115723 1.852917 2.564369
v -7.80542 1.852917 -4.242477
v 8.629272 1.852917 -2.852669
v 8.629272 1.852917 -2.076118
v 8.629272 1.852917 2.235085
v 8.629272 1.852917 3.016457
v 7.810181 1.852917 3.016457
v -7.80542 1.852917 4.242477
v -8.629272 1.852917 -3.465927
v -8.629272 1.852917 4.242477
v -8.629272 1.852917 -4.242477
v -8.629272 1.432152 4.242477
v -8.629272 1.432152 -3.465927
v -8.629272 1.432152 -4.242477
v -7.80542 1.432152 -4.242477
v 8.629272 1.432152 -2.852669
v 8.629272 1.432152 -2.076118
v 8.629272 1.432152 2.235085
v 8.629272 1.432152 3.016457
v 7.810181 1.432152 3.016457
v -7.80542 1.432152 4.242477

vt 3.522705 -1.258385
vt -8.097168 -2.648193
vt 3.522705 1.519432
vt -8.097168 2.745453
vt 8.237671 -3.836678
vt -8.115723 -2.446869
vt -8.115723 2.564369
vt 8.237671 3.79039
vt 3.836678 1.302425
vt -3.79039 1.302425
vt 3.836678 1.852917
vt -3.79039 1.852917
vt 7.87937 1.302425
vt -8.532975 1.302425
vt 7.87937 1.852917
vt -8.532975 1.852917
vt 2.564369 1.302425
vt -2.446869 1.302425
vt 2.564369 1.852917
vt -2.446869 1.852917
vt 8.49799 1.302425
vt -7.901297 1.302425
vt 8.49799 1.852917
vt -7.901297 1.852917
vt 7.80542 -4.242477
vt -8.629272 -2.852669
vt -8.629272 -2.076118
vt -8.629272 2.235085
vt -8.629272 3.016457
vt -7.810181 3.016457
vt 7.80542 4.242477
vt 8.629272 -3.465927
vt 8.629272 4.242477
vt 8.629272 -4.242477
vt 4.242477 2.793486
vt 2.745453 -0.534394
vt -3.465927 2.793486
vt -2.648193 -0.5343941
vt -4.242477 2.793486
vt -3.465927 1.432152
vt -4.242477 1.432152
vt -3.465927 1.852917
vt -4.242477 1.852917
vt 4.242477 1.432152
vt 4.242477 1.852917
vt 7.80542 3.140751
vt 8.629272 3.140751
vt 8.097168 -0.5107409
vt -3.34833 -0.9255038
vt 8.254017 2.73625
vt 8.354363 -0.9255038
vt 8.135151 3.089211
vt -3.404139 -0.7666518
vt -8.358202 3.089211
vt 8.629272 1.432152
vt 7.80542 1.432152
vt 8.629272 1.852917
vt 7.80542 1.852917
vt 8.135151 1.432152
vt -8.358202 1.432152
vt 8.135151 1.852917
vt -8.358202 1.852917
vt 8.032116 -2.076118
vt 8.032116 -2.852669
vt 1.960157 -1.258385
vt 8.032116 2.235085
vt 1.960157 1.519432
vt 8.032116 3.016457
vt 2.852669 1.432152
vt 2.076118 1.432152
vt 2.852669 1.852917
vt 2.076118 1.852917
vt -2.235085 1.432152
vt -2.235085 1.852917
vt -3.016457 1.432152
vt -3.016457 1.852917
vt 8.629272 2.554071
vt 3.522705 -1.056016
vt 7.810181 2.554071
vt -8.340546 -0.6399337
vt 7.450555 3.174509
vt 3.343827 -0.6399336
vt -8.113539 2.816088
vt 7.550116 2.816088
vt -8.287217 -0.8016029
vt -8.097168 -0.5476124
vt -8.629272 3.062475
vt -7.80542 3.062475
vt 7.550117 1.432152
vt -8.11354 1.432152
vt 7.550117 1.852917
vt -8.11354 1.852917
vt 7.810181 1.432152
vt 7.810181 1.852917
vt -7.80542 1.432152
vt -8.629272 1.432152
vt -7.80542 1.852917
vt -8.629272 1.852917

vn 0 -1 0
vn 0 1 0
vn 1 0 0
vn -0.08468069 0 0.9964082
vn -1 0 0
vn -0.07476062 0 -0.9972015
vn -0.9871343 -0.1598929 0
vn 0 -0.4366117 -0.89965
vn 0.1065428 -0.441769 -0.8907799
vn 0.07179073 -0.5235968 -0.8489361
vn 0 0 -1
vn 0.08426478 0 -0.9964434
vn 0.5410223 -0.8410083 0
vn 0 -0.4146782 0.9099681
vn 0.09036607 -0.5082363 0.8564636
vn 0.07107506 -0.4188493 0.9052699
vn 0.07827169 0 0.9969321
vn 0 0 1

usemtl ShipMat
f 3/3/1 2/2/1 1/1/1
f 3/3/1 4/4/1 2/2/1
f 7/7/2 6/6/2 5/5/2
f 7/7/2 5/5/2 8/8/2
f 9/11/3 8/10/3 5/9/3
f 9/11/3 10/12/3 8/10/3
f 11/15/4 5/14/4 6/13/4
f 11/15/4 9/16/4 5/14/4
f 12/19/5 6/18/5 7/17/5
f 12/19/5 11/20/5 6/18/5
f 10/23/6 7/22/6 8/21/6
f 10/23/6 12/24/6 7/22/6
f 11/6/2 13/25/2 9/5/2
f 13/25/2 11/6/2 14/26/2
f 11/6/2 15/27/2 14/26/2
f 16/28/2 15/27/2 11/6/2
f 16/28/2 11/6/2 12/7/2
f 17/29/2 16/28/2 12/7/2
f 17/29/2 12/7/2 18/30/2
f 18/30/2 12/7/2 10/8/2
f 18/30/2 10/8/2 19/31/2
f 10/8/2 9/5/2 20/32/2
f 21/33/2 10/8/2 20/32/2
f 21/33/2 19/31/2 10/8/2
f 9/5/2 13/25/2 22/34/2
f 9/5/2 22/34/2 20/32/2
f 24/37/7 4/36/7 23/35/7
f 4/36/7 24/37/7 2/38/7
f 24/37/7 25/39/7 2/38/7
f 20/42/5 25/41/5 24/40/5
f 20/42/5 22/43/5 25/41/5
f 21/45/5 24/40/5 23/44/5
f 21/45/5 20/42/5 24/40/5
f 2/48/8 25/47/8 26/46/8
f 2/51/9 26/50/9 1/49/9
f 27/54/10 1/53/10 26/52/10
f 22/57/11 26/56/11 25/55/11
f 22/57/11 13/58/11 26/56/11
f 13/61/12 27/60/12 26/59/12
f 13/61/12 14/62/12 27/60/12
f 1/65/13 27/64/13 28/63/13
f 28/63/13 29/66/13 1/65/13
f 1/65/13 29/66/13 3/67/13
f 30/68/13 3/67/13 29/66/13
f 14/71/3 28/70/3 27/69/3
f 14/71/3 15/72/3 28/70/3
f 15/72/3 29/73/3 28/70/3
f 15/72/3 16/74/3 29/73/3
f 16/74/3 30/75/3 29/73/3
f 16/74/3 17/76/3 30/75/3
f 31/79/14 3/78/14 30/77/14
f 3/82/15 31/81/15 4/80/15
f 4/85/16 31/84/16 32/83/16
f 32/88/14 23/87/14 4/86/14
f 18/91/17 32/90/17 31/89/17
f 18/91/17 19/92/17 32/90/17
f 17/57/18 31/93/18 30/55/18
f 17/57/18 18/94/18 31/93/18
f 19/97/18 23/96/18 32/95/18
f 19/97/18 21/98/18 23/96/18

